<svg width="40" height="40" viewBox="0 0 40 40" xmlns="http://www.w3.org/2000/svg"><path d="M19.69 10a5.692 5.692 0 00-4.035 1.705A5.755 5.755 0 0014 15.78v1.91h4.624v-2.767a.995.995 0 01.607-.914.98.98 0 01.377-.075h.166a.98.98 0 01.91.61c.049.12.074.25.074.38v7.414a4.602 4.602 0 003.27-1.361 4.652 4.652 0 001.354-3.288V15.78c.003-1.53-.596-3-1.667-4.087A5.642 5.642 0 0019.691 10z" fill="#fff"/><path d="M19.774 26.091h-.166a.979.979 0 01-.909-.61.993.993 0 01-.075-.379v-7.415a4.601 4.601 0 00-3.27 1.362A4.649 4.649 0 0014 22.336v1.883a5.749 5.749 0 001.646 4.084A5.69 5.69 0 0019.691 30a5.664 5.664 0 004.045-1.697 5.724 5.724 0 001.646-4.084v-1.883h-4.624v2.766a.995.995 0 01-.607.914.98.98 0 01-.377.076z" fill="#fff"/></svg>